<svg id="visual" viewBox="0 0 1920 1080" width="1920" height="1080" xmlns="http://www.w3.org/2000/svg" xmlns:xlink="http://www.w3.org/1999/xlink" version="1.1"><path d="M0 914L45.7 897.8C91.3 881.7 182.7 849.3 274.2 839.5C365.7 829.7 457.3 842.3 548.8 862.7C640.3 883 731.7 911 823 907.2C914.3 903.3 1005.7 867.7 1097 865.7C1188.3 863.7 1279.7 895.3 1371.2 905C1462.7 914.7 1554.3 902.3 1645.8 866.3C1737.3 830.3 1828.7 770.7 1874.3 740.8L1920 711L1920 1081L1874.3 1081C1828.7 1081 1737.3 1081 1645.8 1081C1554.3 1081 1462.7 1081 1371.2 1081C1279.7 1081 1188.3 1081 1097 1081C1005.7 1081 914.3 1081 823 1081C731.7 1081 640.3 1081 548.8 1081C457.3 1081 365.7 1081 274.2 1081C182.7 1081 91.3 1081 45.7 1081L0 1081Z" fill="#0066FF" stroke-linecap="round" stroke-linejoin="miter"></path></svg>