<svg id="visual" viewBox="0 0 900 200" width="900" height="200" xmlns="http://www.w3.org/2000/svg" xmlns:xlink="http://www.w3.org/1999/xlink" version="1.1"><path d="M0 42L7.8 39.3C15.7 36.7 31.3 31.3 47.2 29C63 26.7 79 27.3 94.8 33C110.7 38.7 126.3 49.3 142 49C157.7 48.7 173.3 37.3 189.2 32.8C205 28.3 221 30.7 236.8 31.3C252.7 32 268.3 31 284.2 34.7C300 38.3 316 46.7 331.8 46.7C347.7 46.7 363.3 38.3 379 35C394.7 31.7 410.3 33.3 426.2 37.3C442 41.3 458 47.7 473.8 45.8C489.7 44 505.3 34 521 29.5C536.7 25 552.3 26 568.2 30.5C584 35 600 43 615.8 47.3C631.7 51.7 647.3 52.3 663.2 50.5C679 48.7 695 44.3 710.8 39.5C726.7 34.7 742.3 29.3 758 27.3C773.7 25.3 789.3 26.7 805.2 29.3C821 32 837 36 852.8 35.2C868.7 34.3 884.3 28.7 892.2 25.8L900 23L900 201L892.2 201C884.3 201 868.7 201 852.8 201C837 201 821 201 805.2 201C789.3 201 773.7 201 758 201C742.3 201 726.7 201 710.8 201C695 201 679 201 663.2 201C647.3 201 631.7 201 615.8 201C600 201 584 201 568.2 201C552.3 201 536.7 201 521 201C505.3 201 489.7 201 473.8 201C458 201 442 201 426.2 201C410.3 201 394.7 201 379 201C363.3 201 347.7 201 331.8 201C316 201 300 201 284.2 201C268.3 201 252.7 201 236.8 201C221 201 205 201 189.2 201C173.3 201 157.7 201 142 201C126.3 201 110.7 201 94.8 201C79 201 63 201 47.2 201C31.3 201 15.7 201 7.8 201L0 201Z" fill="#2563eb"></path><path d="M0 53L7.8 51.3C15.7 49.7 31.3 46.3 47.2 49.5C63 52.7 79 62.3 94.8 61C110.7 59.7 126.3 47.3 142 45.7C157.7 44 173.3 53 189.2 55.8C205 58.7 221 55.3 236.8 51.2C252.7 47 268.3 42 284.2 41.2C300 40.3 316 43.7 331.8 44.2C347.7 44.7 363.3 42.3 379 41.3C394.7 40.3 410.3 40.7 426.2 45.8C442 51 458 61 473.8 63.3C489.7 65.7 505.3 60.3 521 57.5C536.7 54.7 552.3 54.3 568.2 57C584 59.7 600 65.3 615.8 63.5C631.7 61.7 647.3 52.3 663.2 51.7C679 51 695 59 710.8 62.5C726.7 66 742.3 65 758 65.7C773.7 66.3 789.3 68.7 805.2 69.2C821 69.7 837 68.3 852.8 67.3C868.7 66.3 884.3 65.7 892.2 65.3L900 65L900 201L892.2 201C884.3 201 868.7 201 852.8 201C837 201 821 201 805.2 201C789.3 201 773.7 201 758 201C742.3 201 726.7 201 710.8 201C695 201 679 201 663.2 201C647.3 201 631.7 201 615.8 201C600 201 584 201 568.2 201C552.3 201 536.7 201 521 201C505.3 201 489.7 201 473.8 201C458 201 442 201 426.2 201C410.3 201 394.7 201 379 201C363.3 201 347.7 201 331.8 201C316 201 300 201 284.2 201C268.3 201 252.7 201 236.8 201C221 201 205 201 189.2 201C173.3 201 157.7 201 142 201C126.3 201 110.7 201 94.8 201C79 201 63 201 47.2 201C31.3 201 15.7 201 7.8 201L0 201Z" fill="#4e71ed"></path><path d="M0 62L7.8 60.7C15.7 59.3 31.3 56.7 47.2 57.7C63 58.7 79 63.3 94.8 67.7C110.7 72 126.3 76 142 75.3C157.7 74.7 173.3 69.3 189.2 68.7C205 68 221 72 236.8 74.3C252.7 76.7 268.3 77.3 284.2 74.3C300 71.3 316 64.7 331.8 64C347.7 63.3 363.3 68.7 379 70C394.7 71.3 410.3 68.7 426.2 70C442 71.3 458 76.7 473.8 78.5C489.7 80.3 505.3 78.7 521 74.8C536.7 71 552.3 65 568.2 60.8C584 56.7 600 54.3 615.8 53.3C631.7 52.3 647.3 52.7 663.2 56.5C679 60.3 695 67.7 710.8 68.8C726.7 70 742.3 65 758 61.7C773.7 58.3 789.3 56.7 805.2 55.8C821 55 837 55 852.8 56.5C868.7 58 884.3 61 892.2 62.5L900 64L900 201L892.2 201C884.3 201 868.7 201 852.8 201C837 201 821 201 805.2 201C789.3 201 773.7 201 758 201C742.3 201 726.7 201 710.8 201C695 201 679 201 663.2 201C647.3 201 631.7 201 615.8 201C600 201 584 201 568.2 201C552.3 201 536.7 201 521 201C505.3 201 489.7 201 473.8 201C458 201 442 201 426.2 201C410.3 201 394.7 201 379 201C363.3 201 347.7 201 331.8 201C316 201 300 201 284.2 201C268.3 201 252.7 201 236.8 201C221 201 205 201 189.2 201C173.3 201 157.7 201 142 201C126.3 201 110.7 201 94.8 201C79 201 63 201 47.2 201C31.3 201 15.7 201 7.8 201L0 201Z" fill="#697ff0"></path><path d="M0 78L7.8 78C15.7 78 31.3 78 47.2 77.3C63 76.7 79 75.3 94.8 76.8C110.7 78.3 126.3 82.7 142 82.8C157.7 83 173.3 79 189.2 76.8C205 74.7 221 74.3 236.8 78.5C252.7 82.7 268.3 91.3 284.2 94.8C300 98.3 316 96.7 331.8 91.3C347.7 86 363.3 77 379 72.3C394.7 67.7 410.3 67.3 426.2 67.7C442 68 458 69 473.8 74.3C489.7 79.7 505.3 89.3 521 94.3C536.7 99.3 552.3 99.7 568.2 96.7C584 93.7 600 87.3 615.8 86.7C631.7 86 647.3 91 663.2 91.2C679 91.3 695 86.7 710.8 83.3C726.7 80 742.3 78 758 80.3C773.7 82.7 789.3 89.3 805.2 89.7C821 90 837 84 852.8 82.3C868.7 80.7 884.3 83.3 892.2 84.7L900 86L900 201L892.2 201C884.3 201 868.7 201 852.8 201C837 201 821 201 805.2 201C789.3 201 773.7 201 758 201C742.3 201 726.7 201 710.8 201C695 201 679 201 663.2 201C647.3 201 631.7 201 615.8 201C600 201 584 201 568.2 201C552.3 201 536.7 201 521 201C505.3 201 489.7 201 473.8 201C458 201 442 201 426.2 201C410.3 201 394.7 201 379 201C363.3 201 347.7 201 331.8 201C316 201 300 201 284.2 201C268.3 201 252.7 201 236.8 201C221 201 205 201 189.2 201C173.3 201 157.7 201 142 201C126.3 201 110.7 201 94.8 201C79 201 63 201 47.2 201C31.3 201 15.7 201 7.8 201L0 201Z" fill="#7f8df2"></path><path d="M0 96L7.8 95.5C15.7 95 31.3 94 47.2 96C63 98 79 103 94.8 101.5C110.7 100 126.3 92 142 91.2C157.7 90.3 173.3 96.7 189.2 100.2C205 103.7 221 104.3 236.8 102.7C252.7 101 268.3 97 284.2 95.3C300 93.7 316 94.3 331.8 95.8C347.7 97.3 363.3 99.7 379 99.2C394.7 98.7 410.3 95.3 426.2 94.5C442 93.7 458 95.3 473.8 93.8C489.7 92.3 505.3 87.7 521 86.3C536.7 85 552.3 87 568.2 87C584 87 600 85 615.8 84C631.7 83 647.3 83 663.2 86.8C679 90.7 695 98.3 710.8 98.3C726.7 98.3 742.3 90.7 758 91.2C773.7 91.7 789.3 100.3 805.2 100.2C821 100 837 91 852.8 87.7C868.7 84.3 884.3 86.7 892.2 87.8L900 89L900 201L892.2 201C884.3 201 868.7 201 852.8 201C837 201 821 201 805.2 201C789.3 201 773.7 201 758 201C742.3 201 726.7 201 710.8 201C695 201 679 201 663.2 201C647.3 201 631.7 201 615.8 201C600 201 584 201 568.2 201C552.3 201 536.7 201 521 201C505.3 201 489.7 201 473.8 201C458 201 442 201 426.2 201C410.3 201 394.7 201 379 201C363.3 201 347.7 201 331.8 201C316 201 300 201 284.2 201C268.3 201 252.7 201 236.8 201C221 201 205 201 189.2 201C173.3 201 157.7 201 142 201C126.3 201 110.7 201 94.8 201C79 201 63 201 47.2 201C31.3 201 15.7 201 7.8 201L0 201Z" fill="#939cf4"></path><path d="M0 119L7.8 118.2C15.7 117.3 31.3 115.7 47.2 114C63 112.3 79 110.7 94.8 112.2C110.7 113.7 126.3 118.3 142 119C157.7 119.7 173.3 116.3 189.2 112.7C205 109 221 105 236.8 102.7C252.7 100.3 268.3 99.7 284.2 101.2C300 102.7 316 106.3 331.8 110.7C347.7 115 363.3 120 379 120.3C394.7 120.7 410.3 116.3 426.2 114.2C442 112 458 112 473.8 113.5C489.7 115 505.3 118 521 119C536.7 120 552.3 119 568.2 119.8C584 120.7 600 123.3 615.8 123.3C631.7 123.3 647.3 120.7 663.2 120.2C679 119.7 695 121.3 710.8 121.3C726.7 121.3 742.3 119.7 758 116.7C773.7 113.7 789.3 109.3 805.2 105.8C821 102.3 837 99.7 852.8 102.2C868.7 104.7 884.3 112.3 892.2 116.2L900 120L900 201L892.2 201C884.3 201 868.7 201 852.8 201C837 201 821 201 805.2 201C789.3 201 773.7 201 758 201C742.3 201 726.7 201 710.8 201C695 201 679 201 663.2 201C647.3 201 631.7 201 615.8 201C600 201 584 201 568.2 201C552.3 201 536.7 201 521 201C505.3 201 489.7 201 473.8 201C458 201 442 201 426.2 201C410.3 201 394.7 201 379 201C363.3 201 347.7 201 331.8 201C316 201 300 201 284.2 201C268.3 201 252.7 201 236.8 201C221 201 205 201 189.2 201C173.3 201 157.7 201 142 201C126.3 201 110.7 201 94.8 201C79 201 63 201 47.2 201C31.3 201 15.7 201 7.8 201L0 201Z" fill="#a6abf6"></path><path d="M0 136L7.8 135.8C15.7 135.7 31.3 135.3 47.2 132.7C63 130 79 125 94.8 122.5C110.7 120 126.3 120 142 120.5C157.7 121 173.3 122 189.2 122.8C205 123.7 221 124.3 236.8 125.8C252.7 127.3 268.3 129.7 284.2 129.5C300 129.3 316 126.7 331.8 125.7C347.7 124.7 363.3 125.3 379 125.3C394.7 125.3 410.3 124.7 426.2 125.5C442 126.3 458 128.7 473.8 128C489.7 127.3 505.3 123.7 521 123.8C536.7 124 552.3 128 568.2 126.8C584 125.7 600 119.3 615.8 119.8C631.7 120.3 647.3 127.7 663.2 130.8C679 134 695 133 710.8 130.8C726.7 128.7 742.3 125.3 758 125.8C773.7 126.3 789.3 130.7 805.2 133C821 135.3 837 135.7 852.8 133C868.7 130.3 884.3 124.7 892.2 121.8L900 119L900 201L892.2 201C884.3 201 868.7 201 852.8 201C837 201 821 201 805.2 201C789.3 201 773.7 201 758 201C742.3 201 726.7 201 710.8 201C695 201 679 201 663.2 201C647.3 201 631.7 201 615.8 201C600 201 584 201 568.2 201C552.3 201 536.7 201 521 201C505.3 201 489.7 201 473.8 201C458 201 442 201 426.2 201C410.3 201 394.7 201 379 201C363.3 201 347.7 201 331.8 201C316 201 300 201 284.2 201C268.3 201 252.7 201 236.8 201C221 201 205 201 189.2 201C173.3 201 157.7 201 142 201C126.3 201 110.7 201 94.8 201C79 201 63 201 47.2 201C31.3 201 15.7 201 7.8 201L0 201Z" fill="#b8baf8"></path><path d="M0 137L7.8 137.7C15.7 138.3 31.3 139.7 47.2 141.2C63 142.7 79 144.3 94.8 144.8C110.7 145.3 126.3 144.7 142 143.8C157.7 143 173.3 142 189.2 142.5C205 143 221 145 236.8 144.8C252.7 144.7 268.3 142.3 284.2 141.8C300 141.3 316 142.7 331.8 141.7C347.7 140.7 363.3 137.3 379 136.7C394.7 136 410.3 138 426.2 139.3C442 140.7 458 141.3 473.8 139.5C489.7 137.7 505.3 133.3 521 131.5C536.7 129.7 552.3 130.3 568.2 133.8C584 137.3 600 143.7 615.8 143.8C631.7 144 647.3 138 663.2 135C679 132 695 132 710.8 132.5C726.7 133 742.3 134 758 135.3C773.7 136.7 789.3 138.3 805.2 138.7C821 139 837 138 852.8 136.3C868.7 134.7 884.3 132.3 892.2 131.2L900 130L900 201L892.2 201C884.3 201 868.7 201 852.8 201C837 201 821 201 805.2 201C789.3 201 773.7 201 758 201C742.3 201 726.7 201 710.8 201C695 201 679 201 663.2 201C647.3 201 631.7 201 615.8 201C600 201 584 201 568.2 201C552.3 201 536.7 201 521 201C505.3 201 489.7 201 473.8 201C458 201 442 201 426.2 201C410.3 201 394.7 201 379 201C363.3 201 347.7 201 331.8 201C316 201 300 201 284.2 201C268.3 201 252.7 201 236.8 201C221 201 205 201 189.2 201C173.3 201 157.7 201 142 201C126.3 201 110.7 201 94.8 201C79 201 63 201 47.2 201C31.3 201 15.7 201 7.8 201L0 201Z" fill="#c9caf9"></path><path d="M0 146L7.8 148C15.7 150 31.3 154 47.2 156.8C63 159.7 79 161.3 94.8 159.8C110.7 158.3 126.3 153.7 142 152.7C157.7 151.7 173.3 154.3 189.2 154.7C205 155 221 153 236.8 151.2C252.7 149.3 268.3 147.7 284.2 149.7C300 151.7 316 157.3 331.8 159.2C347.7 161 363.3 159 379 159.2C394.7 159.3 410.3 161.7 426.2 160.5C442 159.3 458 154.7 473.8 152.7C489.7 150.7 505.3 151.3 521 153C536.7 154.7 552.3 157.3 568.2 158.3C584 159.3 600 158.7 615.8 156.7C631.7 154.7 647.3 151.3 663.2 150.5C679 149.7 695 151.3 710.8 152.7C726.7 154 742.3 155 758 156.2C773.7 157.3 789.3 158.7 805.2 158.5C821 158.3 837 156.7 852.8 154.2C868.7 151.7 884.3 148.3 892.2 146.7L900 145L900 201L892.2 201C884.3 201 868.7 201 852.8 201C837 201 821 201 805.2 201C789.3 201 773.7 201 758 201C742.3 201 726.7 201 710.8 201C695 201 679 201 663.2 201C647.3 201 631.7 201 615.8 201C600 201 584 201 568.2 201C552.3 201 536.7 201 521 201C505.3 201 489.7 201 473.8 201C458 201 442 201 426.2 201C410.3 201 394.7 201 379 201C363.3 201 347.7 201 331.8 201C316 201 300 201 284.2 201C268.3 201 252.7 201 236.8 201C221 201 205 201 189.2 201C173.3 201 157.7 201 142 201C126.3 201 110.7 201 94.8 201C79 201 63 201 47.2 201C31.3 201 15.7 201 7.8 201L0 201Z" fill="#d9dafb"></path><path d="M0 172L7.8 170C15.7 168 31.3 164 47.2 162.2C63 160.3 79 160.7 94.8 162.3C110.7 164 126.3 167 142 167.3C157.7 167.7 173.3 165.3 189.2 165.8C205 166.3 221 169.7 236.8 169.8C252.7 170 268.3 167 284.2 167C300 167 316 170 331.8 169.7C347.7 169.3 363.3 165.7 379 166C394.7 166.3 410.3 170.7 426.2 172C442 173.3 458 171.7 473.8 169.2C489.7 166.7 505.3 163.3 521 162C536.7 160.7 552.3 161.3 568.2 161.8C584 162.3 600 162.7 615.8 164.2C631.7 165.7 647.3 168.3 663.2 169.8C679 171.3 695 171.7 710.8 170.5C726.7 169.3 742.3 166.7 758 165.5C773.7 164.3 789.3 164.7 805.2 164.7C821 164.7 837 164.3 852.8 166.5C868.7 168.7 884.3 173.3 892.2 175.7L900 178L900 201L892.2 201C884.3 201 868.7 201 852.8 201C837 201 821 201 805.2 201C789.3 201 773.7 201 758 201C742.3 201 726.7 201 710.8 201C695 201 679 201 663.2 201C647.3 201 631.7 201 615.8 201C600 201 584 201 568.2 201C552.3 201 536.7 201 521 201C505.3 201 489.7 201 473.8 201C458 201 442 201 426.2 201C410.3 201 394.7 201 379 201C363.3 201 347.7 201 331.8 201C316 201 300 201 284.2 201C268.3 201 252.7 201 236.8 201C221 201 205 201 189.2 201C173.3 201 157.7 201 142 201C126.3 201 110.7 201 94.8 201C79 201 63 201 47.2 201C31.3 201 15.7 201 7.8 201L0 201Z" fill="#eaeafc"></path><path d="M0 187L7.8 187.2C15.7 187.3 31.3 187.7 47.2 185.8C63 184 79 180 94.8 180C110.7 180 126.3 184 142 185.3C157.7 186.7 173.3 185.3 189.2 185.8C205 186.3 221 188.7 236.8 189.5C252.7 190.3 268.3 189.7 284.2 187.7C300 185.7 316 182.3 331.8 182.5C347.7 182.7 363.3 186.3 379 187.8C394.7 189.3 410.3 188.7 426.2 187.7C442 186.7 458 185.3 473.8 185C489.7 184.7 505.3 185.3 521 185C536.7 184.7 552.3 183.3 568.2 182.5C584 181.7 600 181.3 615.8 181C631.7 180.7 647.3 180.3 663.2 181.8C679 183.3 695 186.7 710.8 187.3C726.7 188 742.3 186 758 184.3C773.7 182.7 789.3 181.3 805.2 180.3C821 179.3 837 178.7 852.8 178.2C868.7 177.7 884.3 177.3 892.2 177.2L900 177L900 201L892.2 201C884.3 201 868.7 201 852.8 201C837 201 821 201 805.2 201C789.3 201 773.7 201 758 201C742.3 201 726.7 201 710.8 201C695 201 679 201 663.2 201C647.3 201 631.7 201 615.8 201C600 201 584 201 568.2 201C552.3 201 536.7 201 521 201C505.3 201 489.7 201 473.8 201C458 201 442 201 426.2 201C410.3 201 394.7 201 379 201C363.3 201 347.7 201 331.8 201C316 201 300 201 284.2 201C268.3 201 252.7 201 236.8 201C221 201 205 201 189.2 201C173.3 201 157.7 201 142 201C126.3 201 110.7 201 94.8 201C79 201 63 201 47.2 201C31.3 201 15.7 201 7.8 201L0 201Z" fill="#fafafd"></path></svg>