<svg id="visual" viewBox="0 0 960 540" width="960" height="540" xmlns="http://www.w3.org/2000/svg" xmlns:xlink="http://www.w3.org/1999/xlink" version="1.1"><path d="M820 540L818 527.2C816 514.3 812 488.7 810.8 463C809.7 437.3 811.3 411.7 815.5 386C819.7 360.3 826.3 334.7 833.2 308.8C840 283 847 257 846.2 231.2C845.3 205.3 836.7 179.7 829.7 154C822.7 128.3 817.3 102.7 820 77C822.7 51.3 833.3 25.7 838.7 12.8L844 0L960 0L960 12.8C960 25.7 960 51.3 960 77C960 102.7 960 128.3 960 154C960 179.7 960 205.3 960 231.2C960 257 960 283 960 308.8C960 334.7 960 360.3 960 386C960 411.7 960 437.3 960 463C960 488.7 960 514.3 960 527.2L960 540Z" fill="#6f94f6"></path><path d="M885 540L880.7 527.2C876.3 514.3 867.7 488.7 867.5 463C867.3 437.3 875.7 411.7 878.7 386C881.7 360.3 879.3 334.7 877.5 308.8C875.7 283 874.3 257 875.8 231.2C877.3 205.3 881.7 179.7 883.7 154C885.7 128.3 885.3 102.7 885.5 77C885.7 51.3 886.3 25.7 886.7 12.8L887 0L960 0L960 12.8C960 25.7 960 51.3 960 77C960 102.7 960 128.3 960 154C960 179.7 960 205.3 960 231.2C960 257 960 283 960 308.8C960 334.7 960 360.3 960 386C960 411.7 960 437.3 960 463C960 488.7 960 514.3 960 527.2L960 540Z" fill="#2563eb"></path><path d="M919 540L920.7 527.2C922.3 514.3 925.7 488.7 923.2 463C920.7 437.3 912.3 411.7 911.2 386C910 360.3 916 334.7 918.7 308.8C921.3 283 920.7 257 917 231.2C913.3 205.3 906.7 179.7 903.5 154C900.3 128.3 900.7 102.7 904.7 77C908.7 51.3 916.3 25.7 920.2 12.8L924 0L960 0L960 12.8C960 25.7 960 51.3 960 77C960 102.7 960 128.3 960 154C960 179.7 960 205.3 960 231.2C960 257 960 283 960 308.8C960 334.7 960 360.3 960 386C960 411.7 960 437.3 960 463C960 488.7 960 514.3 960 527.2L960 540Z" fill="#1748ad"></path></svg>