<svg id="visual" viewBox="0 0 900 200" width="900" height="200" xmlns="http://www.w3.org/2000/svg" xmlns:xlink="http://www.w3.org/1999/xlink" version="1.1"><path d="M0 66L10 61.5C20 57 40 48 60 49C80 50 100 61 120 66.7C140 72.3 160 72.7 180 70C200 67.3 220 61.7 240 54.8C260 48 280 40 300 42.5C320 45 340 58 360 59.2C380 60.3 400 49.7 420 48.2C440 46.7 460 54.3 480 59.2C500 64 520 66 540 62.8C560 59.7 580 51.3 600 49.3C620 47.3 640 51.7 660 50C680 48.3 700 40.7 720 44.7C740 48.7 760 64.3 780 64.2C800 64 820 48 840 41.8C860 35.7 880 39.3 890 41.2L900 43L900 201L890 201C880 201 860 201 840 201C820 201 800 201 780 201C760 201 740 201 720 201C700 201 680 201 660 201C640 201 620 201 600 201C580 201 560 201 540 201C520 201 500 201 480 201C460 201 440 201 420 201C400 201 380 201 360 201C340 201 320 201 300 201C280 201 260 201 240 201C220 201 200 201 180 201C160 201 140 201 120 201C100 201 80 201 60 201C40 201 20 201 10 201L0 201Z" fill="#fafafd"></path><path d="M0 83L10 86.5C20 90 40 97 60 98.7C80 100.3 100 96.7 120 93C140 89.3 160 85.7 180 83C200 80.3 220 78.7 240 77.7C260 76.7 280 76.3 300 76C320 75.7 340 75.3 360 76.3C380 77.3 400 79.7 420 83C440 86.3 460 90.7 480 89.3C500 88 520 81 540 76.2C560 71.3 580 68.7 600 68.7C620 68.7 640 71.3 660 76.7C680 82 700 90 720 91.5C740 93 760 88 780 85.8C800 83.7 820 84.3 840 83.3C860 82.3 880 79.7 890 78.3L900 77L900 201L890 201C880 201 860 201 840 201C820 201 800 201 780 201C760 201 740 201 720 201C700 201 680 201 660 201C640 201 620 201 600 201C580 201 560 201 540 201C520 201 500 201 480 201C460 201 440 201 420 201C400 201 380 201 360 201C340 201 320 201 300 201C280 201 260 201 240 201C220 201 200 201 180 201C160 201 140 201 120 201C100 201 80 201 60 201C40 201 20 201 10 201L0 201Z" fill="#d9dafb"></path><path d="M0 102L10 101.5C20 101 40 100 60 97.8C80 95.7 100 92.3 120 94C140 95.7 160 102.3 180 104.3C200 106.3 220 103.7 240 101.3C260 99 280 97 300 96.3C320 95.7 340 96.3 360 95.7C380 95 400 93 420 96.8C440 100.7 460 110.3 480 115.5C500 120.7 520 121.3 540 122.2C560 123 580 124 600 120C620 116 640 107 660 103.5C680 100 700 102 720 105.3C740 108.7 760 113.3 780 115.2C800 117 820 116 840 115.7C860 115.3 880 115.7 890 115.8L900 116L900 201L890 201C880 201 860 201 840 201C820 201 800 201 780 201C760 201 740 201 720 201C700 201 680 201 660 201C640 201 620 201 600 201C580 201 560 201 540 201C520 201 500 201 480 201C460 201 440 201 420 201C400 201 380 201 360 201C340 201 320 201 300 201C280 201 260 201 240 201C220 201 200 201 180 201C160 201 140 201 120 201C100 201 80 201 60 201C40 201 20 201 10 201L0 201Z" fill="#b8baf8"></path><path d="M0 117L10 121.3C20 125.7 40 134.3 60 132.3C80 130.3 100 117.7 120 117.7C140 117.7 160 130.3 180 136.7C200 143 220 143 240 142.5C260 142 280 141 300 137.5C320 134 340 128 360 122.5C380 117 400 112 420 110.2C440 108.3 460 109.7 480 112.8C500 116 520 121 540 121.2C560 121.3 580 116.7 600 118.2C620 119.7 640 127.3 660 131C680 134.7 700 134.3 720 130.3C740 126.3 760 118.7 780 118.2C800 117.7 820 124.3 840 123.5C860 122.7 880 114.3 890 110.2L900 106L900 201L890 201C880 201 860 201 840 201C820 201 800 201 780 201C760 201 740 201 720 201C700 201 680 201 660 201C640 201 620 201 600 201C580 201 560 201 540 201C520 201 500 201 480 201C460 201 440 201 420 201C400 201 380 201 360 201C340 201 320 201 300 201C280 201 260 201 240 201C220 201 200 201 180 201C160 201 140 201 120 201C100 201 80 201 60 201C40 201 20 201 10 201L0 201Z" fill="#939cf4"></path><path d="M0 147L10 144.7C20 142.3 40 137.7 60 138.7C80 139.7 100 146.3 120 146C140 145.7 160 138.3 180 140C200 141.7 220 152.3 240 155.7C260 159 280 155 300 153C320 151 340 151 360 151.8C380 152.7 400 154.3 420 153.5C440 152.7 460 149.3 480 145.8C500 142.3 520 138.7 540 141.7C560 144.7 580 154.3 600 157.2C620 160 640 156 660 153.2C680 150.3 700 148.7 720 149C740 149.3 760 151.7 780 151.7C800 151.7 820 149.3 840 146.5C860 143.7 880 140.3 890 138.7L900 137L900 201L890 201C880 201 860 201 840 201C820 201 800 201 780 201C760 201 740 201 720 201C700 201 680 201 660 201C640 201 620 201 600 201C580 201 560 201 540 201C520 201 500 201 480 201C460 201 440 201 420 201C400 201 380 201 360 201C340 201 320 201 300 201C280 201 260 201 240 201C220 201 200 201 180 201C160 201 140 201 120 201C100 201 80 201 60 201C40 201 20 201 10 201L0 201Z" fill="#697ff0"></path><path d="M0 158L10 159C20 160 40 162 60 165.2C80 168.3 100 172.7 120 175.2C140 177.7 160 178.3 180 177.7C200 177 220 175 240 171.7C260 168.3 280 163.7 300 165.2C320 166.7 340 174.3 360 177.2C380 180 400 178 420 178.2C440 178.3 460 180.7 480 179.3C500 178 520 173 540 169.5C560 166 580 164 600 164C620 164 640 166 660 169.7C680 173.3 700 178.7 720 180.3C740 182 760 180 780 177.8C800 175.7 820 173.3 840 172.2C860 171 880 171 890 171L900 171L900 201L890 201C880 201 860 201 840 201C820 201 800 201 780 201C760 201 740 201 720 201C700 201 680 201 660 201C640 201 620 201 600 201C580 201 560 201 540 201C520 201 500 201 480 201C460 201 440 201 420 201C400 201 380 201 360 201C340 201 320 201 300 201C280 201 260 201 240 201C220 201 200 201 180 201C160 201 140 201 120 201C100 201 80 201 60 201C40 201 20 201 10 201L0 201Z" fill="#2563eb"></path></svg>