<svg id="visual" viewBox="0 0 900 100" width="900" height="100" xmlns="http://www.w3.org/2000/svg" xmlns:xlink="http://www.w3.org/1999/xlink" version="1.1"><path d="M0 43L15 39.7C30 36.3 60 29.7 90 30.8C120 32 150 41 180 41.8C210 42.7 240 35.3 270 31.8C300 28.3 330 28.7 360 28.5C390 28.3 420 27.7 450 31C480 34.3 510 41.7 540 40.7C570 39.7 600 30.3 630 25.7C660 21 690 21 720 21.2C750 21.3 780 21.7 810 25.8C840 30 870 38 885 42L900 46L900 101L885 101C870 101 840 101 810 101C780 101 750 101 720 101C690 101 660 101 630 101C600 101 570 101 540 101C510 101 480 101 450 101C420 101 390 101 360 101C330 101 300 101 270 101C240 101 210 101 180 101C150 101 120 101 90 101C60 101 30 101 15 101L0 101Z" fill="#fafafd"></path><path d="M0 47L15 47C30 47 60 47 90 49.3C120 51.7 150 56.3 180 54.5C210 52.7 240 44.3 270 44C300 43.7 330 51.3 360 52.7C390 54 420 49 450 47.3C480 45.7 510 47.3 540 50.2C570 53 600 57 630 55C660 53 690 45 720 43.8C750 42.7 780 48.3 810 50.5C840 52.7 870 51.3 885 50.7L900 50L900 101L885 101C870 101 840 101 810 101C780 101 750 101 720 101C690 101 660 101 630 101C600 101 570 101 540 101C510 101 480 101 450 101C420 101 390 101 360 101C330 101 300 101 270 101C240 101 210 101 180 101C150 101 120 101 90 101C60 101 30 101 15 101L0 101Z" fill="#c3c6ff"></path><path d="M0 74L15 73.5C30 73 60 72 90 68.5C120 65 150 59 180 58C210 57 240 61 270 62.7C300 64.3 330 63.7 360 64.8C390 66 420 69 450 67.8C480 66.7 510 61.3 540 59C570 56.7 600 57.3 630 58.2C660 59 690 60 720 59.3C750 58.7 780 56.3 810 54.8C840 53.3 870 52.7 885 52.3L900 52L900 101L885 101C870 101 840 101 810 101C780 101 750 101 720 101C690 101 660 101 630 101C600 101 570 101 540 101C510 101 480 101 450 101C420 101 390 101 360 101C330 101 300 101 270 101C240 101 210 101 180 101C150 101 120 101 90 101C60 101 30 101 15 101L0 101Z" fill="#8595ff"></path><path d="M0 87L15 84.2C30 81.3 60 75.7 90 75C120 74.3 150 78.7 180 81.3C210 84 240 85 270 83.2C300 81.3 330 76.7 360 74.8C390 73 420 74 450 74.2C480 74.3 510 73.7 540 75.2C570 76.7 600 80.3 630 82.5C660 84.7 690 85.3 720 83.8C750 82.3 780 78.7 810 76.2C840 73.7 870 72.3 885 71.7L900 71L900 101L885 101C870 101 840 101 810 101C780 101 750 101 720 101C690 101 660 101 630 101C600 101 570 101 540 101C510 101 480 101 450 101C420 101 390 101 360 101C330 101 300 101 270 101C240 101 210 101 180 101C150 101 120 101 90 101C60 101 30 101 15 101L0 101Z" fill="#0066ff"></path></svg>