<svg id="visual" viewBox="0 0 960 540" width="960" height="540" xmlns="http://www.w3.org/2000/svg" xmlns:xlink="http://www.w3.org/1999/xlink" version="1.1"><rect x="0" y="0" width="960" height="540" fill="#fafafd"></rect><defs><linearGradient id="grad1_0" x1="43.8%" y1="100%" x2="100%" y2="0%"><stop offset="14.444444444444446%" stop-color="#2563eb" stop-opacity="1"></stop><stop offset="85.55555555555554%" stop-color="#2563eb" stop-opacity="1"></stop></linearGradient></defs><defs><linearGradient id="grad1_1" x1="43.8%" y1="100%" x2="100%" y2="0%"><stop offset="14.444444444444446%" stop-color="#2563eb" stop-opacity="1"></stop><stop offset="85.55555555555554%" stop-color="#7486f1" stop-opacity="1"></stop></linearGradient></defs><defs><linearGradient id="grad1_2" x1="43.8%" y1="100%" x2="100%" y2="0%"><stop offset="14.444444444444446%" stop-color="#a6abf6" stop-opacity="1"></stop><stop offset="85.55555555555554%" stop-color="#7486f1" stop-opacity="1"></stop></linearGradient></defs><defs><linearGradient id="grad1_3" x1="43.8%" y1="100%" x2="100%" y2="0%"><stop offset="14.444444444444446%" stop-color="#a6abf6" stop-opacity="1"></stop><stop offset="85.55555555555554%" stop-color="#d1d2fa" stop-opacity="1"></stop></linearGradient></defs><defs><linearGradient id="grad1_4" x1="43.8%" y1="100%" x2="100%" y2="0%"><stop offset="14.444444444444446%" stop-color="#fafafd" stop-opacity="1"></stop><stop offset="85.55555555555554%" stop-color="#d1d2fa" stop-opacity="1"></stop></linearGradient></defs><defs><linearGradient id="grad2_0" x1="0%" y1="100%" x2="56.3%" y2="0%"><stop offset="14.444444444444446%" stop-color="#2563eb" stop-opacity="1"></stop><stop offset="85.55555555555554%" stop-color="#2563eb" stop-opacity="1"></stop></linearGradient></defs><defs><linearGradient id="grad2_1" x1="0%" y1="100%" x2="56.3%" y2="0%"><stop offset="14.444444444444446%" stop-color="#7486f1" stop-opacity="1"></stop><stop offset="85.55555555555554%" stop-color="#2563eb" stop-opacity="1"></stop></linearGradient></defs><defs><linearGradient id="grad2_2" x1="0%" y1="100%" x2="56.3%" y2="0%"><stop offset="14.444444444444446%" stop-color="#7486f1" stop-opacity="1"></stop><stop offset="85.55555555555554%" stop-color="#a6abf6" stop-opacity="1"></stop></linearGradient></defs><defs><linearGradient id="grad2_3" x1="0%" y1="100%" x2="56.3%" y2="0%"><stop offset="14.444444444444446%" stop-color="#d1d2fa" stop-opacity="1"></stop><stop offset="85.55555555555554%" stop-color="#a6abf6" stop-opacity="1"></stop></linearGradient></defs><defs><linearGradient id="grad2_4" x1="0%" y1="100%" x2="56.3%" y2="0%"><stop offset="14.444444444444446%" stop-color="#d1d2fa" stop-opacity="1"></stop><stop offset="85.55555555555554%" stop-color="#fafafd" stop-opacity="1"></stop></linearGradient></defs><g transform="translate(960, 540)"><path d="M-347 0C-331 -25.3 -315 -50.7 -318.8 -85.4C-322.5 -120.1 -346 -164.2 -340.3 -196.5C-334.7 -228.8 -300 -249.2 -273.7 -273.7C-247.3 -298.1 -229.4 -326.6 -202.5 -350.7C-175.6 -374.9 -139.8 -394.6 -104.6 -390.2C-69.3 -385.9 -34.7 -357.4 0 -329L0 0Z" fill="#e6e6fc"></path><path d="M-277.6 0C-264.8 -20.3 -252 -40.5 -255 -68.3C-258 -96.1 -276.8 -131.4 -272.3 -157.2C-267.8 -183 -240 -199.3 -218.9 -218.9C-197.9 -238.5 -183.5 -261.3 -162 -280.6C-140.5 -299.9 -111.8 -315.7 -83.7 -312.2C-55.5 -308.7 -27.7 -286 0 -263.2L0 0Z" fill="#bcbef8"></path><path d="M-208.2 0C-198.6 -15.2 -189 -30.4 -191.3 -51.2C-193.5 -72.1 -207.6 -98.5 -204.2 -117.9C-200.8 -137.3 -180 -149.5 -164.2 -164.2C-148.4 -178.9 -137.6 -196 -121.5 -210.4C-105.4 -224.9 -83.9 -236.8 -62.7 -234.1C-41.6 -231.5 -20.8 -214.5 0 -197.4L0 0Z" fill="#8e99f4"></path><path d="M-138.8 0C-132.4 -10.1 -126 -20.3 -127.5 -34.2C-129 -48.1 -138.4 -65.7 -136.1 -78.6C-133.9 -91.5 -120 -99.7 -109.5 -109.5C-98.9 -119.2 -91.8 -130.6 -81 -140.3C-70.2 -149.9 -55.9 -157.8 -41.8 -156.1C-27.7 -154.4 -13.9 -143 0 -131.6L0 0Z" fill="#5574ee"></path><path d="M-69.4 0C-66.2 -5.1 -63 -10.1 -63.8 -17.1C-64.5 -24 -69.2 -32.8 -68.1 -39.3C-66.9 -45.8 -60 -49.8 -54.7 -54.7C-49.5 -59.6 -45.9 -65.3 -40.5 -70.1C-35.1 -75 -28 -78.9 -20.9 -78C-13.9 -77.2 -6.9 -71.5 0 -65.8L0 0Z" fill="#2563eb"></path></g><g transform="translate(0, 0)"><path d="M399 0C400.5 36.1 402 72.2 391.2 104.8C380.4 137.4 357.2 166.5 336 194C314.8 221.5 295.5 247.5 271.5 271.5C247.6 295.5 219 317.5 187.5 324.8C156 332 121.5 324.4 89.8 335.2C58.1 345.9 29 375 0 404L0 0Z" fill="#e6e6fc"></path><path d="M319.2 0C320.4 28.9 321.6 57.8 313 83.9C304.3 109.9 285.8 133.2 268.8 155.2C251.8 177.2 236.4 198 217.2 217.2C198.1 236.4 175.2 254 150 259.8C124.8 265.6 97.2 259.5 71.8 268.1C46.5 276.7 23.2 300 0 323.2L0 0Z" fill="#bcbef8"></path><path d="M239.4 0C240.3 21.7 241.2 43.3 234.7 62.9C228.2 82.4 214.3 99.9 201.6 116.4C188.9 132.9 177.3 148.5 162.9 162.9C148.6 177.3 131.4 190.5 112.5 194.9C93.6 199.2 72.9 194.7 53.9 201.1C34.8 207.6 17.4 225 0 242.4L0 0Z" fill="#8e99f4"></path><path d="M159.6 0C160.2 14.4 160.8 28.9 156.5 41.9C152.2 55 142.9 66.6 134.4 77.6C125.9 88.6 118.2 99 108.6 108.6C99 118.2 87.6 127 75 129.9C62.4 132.8 48.6 129.8 35.9 134.1C23.2 138.4 11.6 150 0 161.6L0 0Z" fill="#5574ee"></path><path d="M79.8 0C80.1 7.2 80.4 14.4 78.2 21C76.1 27.5 71.4 33.3 67.2 38.8C63 44.3 59.1 49.5 54.3 54.3C49.5 59.1 43.8 63.5 37.5 65C31.2 66.4 24.3 64.9 18 67C11.6 69.2 5.8 75 0 80.8L0 0Z" fill="#2563eb"></path></g></svg>