<svg id="visual" viewBox="0 0 960 540" width="960" height="540" xmlns="http://www.w3.org/2000/svg" xmlns:xlink="http://www.w3.org/1999/xlink" version="1.1"><rect x="0" y="0" width="960" height="540" fill="#fafafd"></rect><defs><linearGradient id="grad1_0" x1="43.8%" y1="100%" x2="100%" y2="0%"><stop offset="14.444444444444446%" stop-color="#2563eb" stop-opacity="1"></stop><stop offset="85.55555555555554%" stop-color="#2563eb" stop-opacity="1"></stop></linearGradient></defs><defs><linearGradient id="grad1_1" x1="43.8%" y1="100%" x2="100%" y2="0%"><stop offset="14.444444444444446%" stop-color="#2563eb" stop-opacity="1"></stop><stop offset="85.55555555555554%" stop-color="#8692f3" stop-opacity="1"></stop></linearGradient></defs><defs><linearGradient id="grad1_2" x1="43.8%" y1="100%" x2="100%" y2="0%"><stop offset="14.444444444444446%" stop-color="#c3c5f9" stop-opacity="1"></stop><stop offset="85.55555555555554%" stop-color="#8692f3" stop-opacity="1"></stop></linearGradient></defs><defs><linearGradient id="grad1_3" x1="43.8%" y1="100%" x2="100%" y2="0%"><stop offset="14.444444444444446%" stop-color="#c3c5f9" stop-opacity="1"></stop><stop offset="85.55555555555554%" stop-color="#fafafd" stop-opacity="1"></stop></linearGradient></defs><defs><linearGradient id="grad2_0" x1="0%" y1="100%" x2="56.3%" y2="0%"><stop offset="14.444444444444446%" stop-color="#2563eb" stop-opacity="1"></stop><stop offset="85.55555555555554%" stop-color="#2563eb" stop-opacity="1"></stop></linearGradient></defs><defs><linearGradient id="grad2_1" x1="0%" y1="100%" x2="56.3%" y2="0%"><stop offset="14.444444444444446%" stop-color="#8692f3" stop-opacity="1"></stop><stop offset="85.55555555555554%" stop-color="#2563eb" stop-opacity="1"></stop></linearGradient></defs><defs><linearGradient id="grad2_2" x1="0%" y1="100%" x2="56.3%" y2="0%"><stop offset="14.444444444444446%" stop-color="#8692f3" stop-opacity="1"></stop><stop offset="85.55555555555554%" stop-color="#c3c5f9" stop-opacity="1"></stop></linearGradient></defs><defs><linearGradient id="grad2_3" x1="0%" y1="100%" x2="56.3%" y2="0%"><stop offset="14.444444444444446%" stop-color="#fafafd" stop-opacity="1"></stop><stop offset="85.55555555555554%" stop-color="#c3c5f9" stop-opacity="1"></stop></linearGradient></defs><g transform="translate(960, 540)"><path d="M-216 0C-214.6 -19.9 -213.2 -39.7 -202.8 -54.4C-192.5 -69 -173.1 -78.4 -165.4 -95.5C-157.7 -112.6 -161.7 -137.4 -152.7 -152.7C-143.8 -168.1 -121.9 -173.9 -103 -178.4C-84.1 -182.9 -68.2 -186.2 -51.5 -192.2C-34.8 -198.3 -17.4 -207.1 0 -216L0 0Z" fill="#dfdffb"></path><path d="M-162 0C-161 -14.9 -159.9 -29.8 -152.1 -40.8C-144.4 -51.7 -129.8 -58.8 -124.1 -71.6C-118.3 -84.5 -121.3 -103.1 -114.6 -114.6C-107.8 -126 -91.4 -130.4 -77.3 -133.8C-63.1 -137.2 -51.1 -139.6 -38.6 -144.2C-26.1 -148.7 -13.1 -155.4 0 -162L0 0Z" fill="#a6abf6"></path><path d="M-108 0C-107.3 -9.9 -106.6 -19.9 -101.4 -27.2C-96.2 -34.5 -86.6 -39.2 -82.7 -47.8C-78.9 -56.3 -80.8 -68.7 -76.4 -76.4C-71.9 -84 -61 -86.9 -51.5 -89.2C-42 -91.5 -34.1 -93.1 -25.8 -96.1C-17.4 -99.1 -8.7 -103.6 0 -108L0 0Z" fill="#607aef"></path><path d="M-54 0C-53.7 -5 -53.3 -9.9 -50.7 -13.6C-48.1 -17.2 -43.3 -19.6 -41.4 -23.9C-39.4 -28.2 -40.4 -34.4 -38.2 -38.2C-35.9 -42 -30.5 -43.5 -25.8 -44.6C-21 -45.7 -17 -46.5 -12.9 -48.1C-8.7 -49.6 -4.4 -51.8 0 -54L0 0Z" fill="#2563eb"></path></g><g transform="translate(0, 0)"><path d="M216 0C208.3 18.2 200.5 36.5 191.3 51.2C182 66 171.2 77.3 167.1 96.5C163 115.7 165.6 142.6 152.7 152.7C139.8 162.8 111.5 156 93 161.1C74.5 166.1 65.9 183 52 194.2C38.2 205.3 19.1 210.6 0 216L0 0Z" fill="#dfdffb"></path><path d="M162 0C156.2 13.7 150.4 27.4 143.4 38.4C136.5 49.5 128.4 58 125.4 72.4C122.3 86.7 124.2 107 114.6 114.6C104.9 122.1 83.6 117 69.8 120.8C55.9 124.6 49.4 137.3 39 145.6C28.6 154 14.3 158 0 162L0 0Z" fill="#a6abf6"></path><path d="M108 0C104.1 9.1 100.3 18.2 95.6 25.6C91 33 85.6 38.7 83.6 48.2C81.5 57.8 82.8 71.3 76.4 76.4C69.9 81.4 55.7 78 46.5 80.5C37.3 83.1 32.9 91.5 26 97.1C19.1 102.6 9.5 105.3 0 108L0 0Z" fill="#607aef"></path><path d="M54 0C52.1 4.6 50.1 9.1 47.8 12.8C45.5 16.5 42.8 19.3 41.8 24.1C40.8 28.9 41.4 35.7 38.2 38.2C35 40.7 27.9 39 23.3 40.3C18.6 41.5 16.5 45.8 13 48.5C9.5 51.3 4.8 52.7 0 54L0 0Z" fill="#2563eb"></path></g></svg>